<svg width="1450" height="200" viewBox="0 0 1450 200" fill="none" xmlns="http://www.w3.org/2000/svg">
<path d="M125.585 53.2648C125.585 53.2648 63.9095 3.10218 19.1525 63.9338C15.8321 68.4466 13.2125 73.4629 11.7417 78.8693C7.89164 93.0220 3.71489 123.290 28.5253 146.795C62.0549 178.560 100.879 166.206 129.114 143.265C157.350 120.324 187.350 102.677 196.174 100.912L177.644 89.4415C177.644 89.4415 131.761 115.912 117.644 128.265C103.526 140.619 62.9373 167.089 32.9371 121.206C32.9371 121.206 11.7604 89.4415 47.0548 61.2060C47.0548 61.2060 69.9961 40.0294 110.585 64.7354L125.585 53.2648Z" fill="#6B5B95"/>
<path d="M146.471 146.524C146.471 146.524 208.146 196.686 252.904 135.855C256.224 131.342 258.844 126.326 260.314 120.920C264.164 106.767 268.341 76.4986 243.530 52.9940C210.001 21.2291 171.178 33.5821 142.941 56.5235C114.705 79.4648 84.7056 97.1120 75.8823 98.8766L94.4118 110.347C94.4118 110.347 140.295 83.8766 154.413 71.5235C168.530 59.1704 209.119 32.6998 239.119 78.5823C239.119 78.5823 260.295 110.347 225.001 138.583C225.001 138.583 202.060 159.760 161.471 135.054L146.471 146.524Z" fill="#6B5B95"/>
<path d="M180.356 139.263C180.356 139.263 206.828 153.380 229.769 126.910C252.710 100.439 233.299 68.6743 217.916 61.6153C202.534 54.5564 192.710 56.3210 180.356 59.8504C180.356 59.8504 229.769 56.5530 231.534 100.439C231.534 100.439 229.769 148.087 180.356 139.263Z" fill="#6B5B95" fill-opacity="0.8"/>
<path d="M91.6989 139.266C91.6989 139.266 65.2278 153.384 42.2867 126.913C19.3456 100.442 38.7567 68.6778 54.1396 61.6190C69.5226 54.5601 79.3458 56.3247 91.6989 59.8542C91.6989 59.8542 42.2867 56.5561 40.5220 100.442C40.5220 100.442 42.2867 148.090 91.6989 139.266Z" fill="#6B5B95" fill-opacity="0.8"/>
<circle cx="252.35" cy="47.9414" r="22.9414" fill="#6B5B95"/>
<circle cx="22.9414" cy="152.059" r="22.9414" fill="#6B5B95"/>
<text x="310" y="140" font-family="'Times New Roman', Georgia, serif" font-size="120" font-weight="400" fill="#6B5B95" letter-spacing="-1">PublishPress Shortlinks</text>
</svg>
